<?xml version="1.0" encoding="utf-8"?>
<!-- Generator: Adobe Illustrator 25.2.1, SVG Export Plug-In . SVG Version: 6.00 Build 0)  -->
<svg version="1.1" id="Calque_1" xmlns="http://www.w3.org/2000/svg" xmlns:xlink="http://www.w3.org/1999/xlink" x="0px" y="0px"
	 viewBox="0 0 24 24" style="enable-background:new 0 0 24 24;" xml:space="preserve">
<style type="text/css">
	.st0{fill:#FFFFFF;}
</style>
<path class="st0" d="M15.3,8.3l-2.6-2.6c-0.4-0.4-1-0.4-1.4,0L8.7,8.3c-0.4,0.4-0.4,1,0,1.4l2.6,2.6c0.4,0.4,1,0.4,1.4,0l2.6-2.6
	C15.7,9.3,15.7,8.7,15.3,8.3z M7.8,8.3L5.2,5.7c-0.4-0.4-1-0.4-1.4,0L1.2,8.3c-0.4,0.4-0.4,1,0,1.4l2.6,2.6c0.4,0.4,1,0.4,1.4,0
	l2.6-2.6C8.2,9.3,8.2,8.7,7.8,8.3z M22.8,8.3l-2.6-2.6c-0.4-0.4-1-0.4-1.4,0l-2.6,2.6c-0.4,0.4-0.4,1,0,1.4l2.6,2.6
	c0.4,0.4,1,0.4,1.4,0l2.6-2.6C23.2,9.3,23.2,8.7,22.8,8.3z M15.3,15.8l-2.6-2.6c-0.4-0.4-1-0.4-1.4,0l-2.6,2.6c-0.4,0.4-0.4,1,0,1.4
	l2.6,2.6c0.4,0.4,1,0.4,1.4,0l2.6-2.6C15.7,16.8,15.7,16.2,15.3,15.8z"/>
</svg>
