<?xml version="1.0" encoding="utf-8"?>
<!-- Generator: Adobe Illustrator 25.2.1, SVG Export Plug-In . SVG Version: 6.00 Build 0)  -->
<svg version="1.1" id="Capa_1" xmlns="http://www.w3.org/2000/svg" xmlns:xlink="http://www.w3.org/1999/xlink" x="0px" y="0px"
	 viewBox="0 0 97.8 97.8" style="enable-background:new 0 0 97.8 97.8;" xml:space="preserve">
<style type="text/css">
	.st0{fill:#FFFFFF;}
</style>
<g>
	<g>
		<rect y="70.8" class="st0" width="17.8" height="5.4"/>
		<rect y="63.8" class="st0" width="17.8" height="5.4"/>
		<rect y="56.8" class="st0" width="17.8" height="5.4"/>
		<rect y="49.7" class="st0" width="17.8" height="5.4"/>
		<rect y="42.7" class="st0" width="17.8" height="5.4"/>
		<rect x="20" y="70.8" class="st0" width="17.8" height="5.4"/>
		<rect x="20" y="63.8" class="st0" width="17.8" height="5.4"/>
		<rect x="20" y="56.8" class="st0" width="17.8" height="5.4"/>
		<rect x="40" y="70.8" class="st0" width="17.8" height="5.4"/>
		<rect x="40" y="63.8" class="st0" width="17.8" height="5.4"/>
		<rect x="40" y="56.8" class="st0" width="17.8" height="5.4"/>
		<rect x="40" y="49.7" class="st0" width="17.8" height="5.4"/>
		<rect x="40" y="42.7" class="st0" width="17.8" height="5.4"/>
		<rect x="40" y="35.7" class="st0" width="17.8" height="5.4"/>
		<rect x="40" y="28.7" class="st0" width="17.8" height="5.4"/>
		<rect x="60" y="70.8" class="st0" width="17.8" height="5.4"/>
		<rect x="60" y="63.8" class="st0" width="17.8" height="5.4"/>
		<rect x="60" y="56.8" class="st0" width="17.8" height="5.4"/>
		<rect x="60" y="49.7" class="st0" width="17.8" height="5.4"/>
		<rect x="60" y="42.7" class="st0" width="17.8" height="5.4"/>
		<rect x="80" y="70.8" class="st0" width="17.8" height="5.4"/>
		<rect x="80" y="63.8" class="st0" width="17.8" height="5.4"/>
		<rect x="80" y="56.8" class="st0" width="17.8" height="5.4"/>
		<rect x="80" y="49.7" class="st0" width="17.8" height="5.4"/>
		<rect x="80" y="42.7" class="st0" width="17.8" height="5.4"/>
		<rect x="80" y="35.7" class="st0" width="17.8" height="5.4"/>
		<rect x="80" y="28.7" class="st0" width="17.8" height="5.4"/>
		<rect x="80" y="21.6" class="st0" width="17.8" height="5.4"/>
	</g>
</g>
</svg>
