<?xml version="1.0" encoding="utf-8"?>
<!-- Generator: Adobe Illustrator 25.2.1, SVG Export Plug-In . SVG Version: 6.00 Build 0)  -->
<svg version="1.1" id="Capa_1" xmlns="http://www.w3.org/2000/svg" xmlns:xlink="http://www.w3.org/1999/xlink" x="0px" y="0px"
	 viewBox="0 0 512 512" style="enable-background:new 0 0 512 512;" xml:space="preserve">
<style type="text/css">
	.st0{fill:#FFFFFF;}
</style>
<path class="st0" d="M512,257c0,140.8-114.2,255-255,255S2,397.8,2,257S116.2,2,257,2S512,116.2,512,257z M257,135.4
	c67.1,0.1,121.5,54.5,121.6,121.6c-0.1,67.1-54.5,121.5-121.6,121.6c-67.1-0.1-121.5-54.5-121.6-121.6
	C135.5,189.9,189.9,135.5,257,135.4z M257,123.7c-73.6,0-133.3,59.7-133.3,133.3c0,0,0,0,0,0c0,73.6,59.7,133.3,133.3,133.3
	S390.3,330.6,390.3,257S330.6,123.7,257,123.7L257,123.7z M210.6,323.7l113-69.5l-113-63.8V323.7z"/>
</svg>
